<svg width="117" height="148" viewBox="0 0 117 148" fill="none" xmlns="http://www.w3.org/2000/svg">
<path d="M75.7548 17.9844H5.19043V142.042H75.7548V17.9844Z" fill="white"/>
<path d="M76.1963 142.428H4.80371V17.5986H76.1963V142.428ZM5.63193 141.601H75.3681V18.4261H5.63193V141.601Z" fill="#030047"/>
<path d="M71.5582 54.7773H20.8711V107.401H71.5582V54.7773Z" fill="#4286F4"/>
<path d="M15.9017 63.8787C15.6808 63.8787 15.46 63.7132 15.46 63.4374V48.3232H28.9876C29.2084 48.3232 29.4293 48.4888 29.4293 48.7646C29.4293 49.0404 29.2636 49.2058 28.9876 49.2058H16.2882V63.4926C16.2882 63.7132 16.1225 63.8787 15.9017 63.8787Z" fill="#030047"/>
<path d="M29.8163 113.966H14.6875V100.451C14.6875 100.23 14.8531 100.01 15.1292 100.01C15.4053 100.01 15.5709 100.175 15.5709 100.451V113.138H29.8715C30.0924 113.138 30.3133 113.304 30.3133 113.579C30.3133 113.855 30.0372 113.966 29.8163 113.966Z" fill="#030047"/>
<path d="M41.3552 27.8584H16.7295V33.54H41.3552V27.8584Z" fill="white"/>
<path d="M41.742 33.9817H16.2881V27.4727H41.742V33.9817ZM17.1163 33.1543H40.9138V28.3001H17.1163V33.1543Z" fill="#030047"/>
<path d="M45.663 33.3189C47.1267 33.3189 48.3133 32.1335 48.3133 30.6712C48.3133 29.2089 47.1267 28.0234 45.663 28.0234C44.1993 28.0234 43.0127 29.2089 43.0127 30.6712C43.0127 32.1335 44.1993 33.3189 45.663 33.3189Z" fill="#030047"/>
<path d="M2.92607 36.6299H0.441406V65.8653H2.92607V36.6299Z" fill="#4286F4"/>
<path d="M3.31288 66.2513H0V36.1885H3.31288V66.2513ZM0.82822 65.4239H2.48466V37.0159H0.82822V65.4239Z" fill="#4286F4"/>
<path d="M28.1595 74.9659C28.0491 74.9659 27.9386 74.9107 27.8282 74.8004L26.1718 72.9249C26.0061 72.7595 26.0062 72.4836 26.227 72.3181C26.3927 72.1527 26.6687 72.1527 26.8344 72.3733L28.4908 74.2488C28.6564 74.4143 28.6565 74.6901 28.4356 74.8556C28.3804 74.9107 28.27 74.9659 28.1595 74.9659Z" fill="white"/>
<path d="M17.2821 85.5013C17.1717 85.5013 17.0613 85.4461 17.0061 85.391C16.8404 85.2255 16.8404 84.9497 17.0061 84.7842L20.8159 80.8126C20.9815 80.6471 21.2576 80.6471 21.4232 80.8126C21.5889 80.9781 21.5889 81.2539 21.4232 81.4193L17.6134 85.391C17.503 85.5013 17.3926 85.5013 17.2821 85.5013Z" fill="#4286F4"/>
<path d="M31.6927 99.5128C31.527 99.5128 31.3614 99.4024 31.3062 99.2921L30.3675 97.2511C30.2571 97.0305 30.3675 96.8099 30.5884 96.6995C30.8092 96.5892 31.0301 96.6995 31.1405 96.9202L32.0792 98.9612C32.1896 99.1818 32.0792 99.4024 31.8583 99.5128C31.8031 99.4576 31.7479 99.5128 31.6927 99.5128Z" fill="white"/>
<path d="M108.056 118.379L117.001 129.411L96.8473 148C96.8473 148 94.473 145.408 96.019 142.76C96.7921 141.381 97.5098 138.954 97.6755 136.306C97.6755 136.141 97.6755 135.92 97.7307 135.755C97.7859 135.093 97.7859 134.431 97.7307 133.769C97.7307 133.603 97.6755 133.383 97.6755 133.217C97.5098 131.728 97.1233 130.294 96.4608 129.08L108.056 118.379Z" fill="#030047"/>
<path d="M102.92 133.052C101.209 133.273 99.4417 133.549 97.73 133.824C97.73 133.659 97.6748 133.438 97.6748 133.273C99.3865 133.052 101.098 132.776 102.81 132.556C103.141 132.5 103.251 133.052 102.92 133.052Z" fill="white"/>
<path d="M102.424 136.141C100.878 136.196 99.2765 136.251 97.7305 136.307C97.7305 136.141 97.7305 135.92 97.7857 135.755C99.3317 135.699 100.933 135.644 102.479 135.589C102.81 135.589 102.755 136.141 102.424 136.141Z" fill="white"/>
<path d="M69.4604 132.169L68.5218 146.345H41.0801C41.0801 146.345 41.0801 142.87 44.0065 141.932C45.4972 141.491 47.7058 140.112 49.6384 138.347C49.7488 138.237 49.9144 138.126 50.0249 137.961C50.4666 137.52 50.9635 137.023 51.35 136.527C51.4605 136.361 51.5709 136.251 51.6813 136.085C52.5647 134.872 53.2825 133.548 53.5586 132.224H69.4604V132.169Z" fill="#030047"/>
<path d="M98.7799 99.0726C95.9639 89.1435 91.3811 61.3975 91.3811 61.3975L75.5345 65.0381C75.0928 63.4384 74.7615 62.4455 74.7615 62.4455L58.7492 68.5684C58.7492 81.4761 51.5713 132.886 51.5713 132.886L72.332 135.81C72.332 135.81 74.7063 113.359 76.2523 96.2042C82.105 116.173 91.9885 130.735 95.9639 133.217L111.093 120.806C111.148 120.751 101.596 109.002 98.7799 99.0726Z" fill="white"/>
<path d="M72.7184 136.251L51.0742 133.217L51.1294 132.831C51.1846 132.335 58.3073 81.2554 58.3073 68.5683V68.2925L74.9822 61.8938L75.0926 62.3351C75.0926 62.3351 75.3687 63.2177 75.7552 64.5967L91.657 60.9561L91.7122 61.3973C91.7674 61.6731 96.3503 89.2537 99.111 99.0724C101.872 108.781 111.313 120.475 111.369 120.585L111.645 120.916L95.9638 133.769L95.6877 133.603C91.8779 131.287 82.4361 117.662 76.4177 98.4105C74.8717 115.069 72.7184 135.699 72.6632 135.92L72.7184 136.251ZM52.0128 132.5L71.9454 135.258C72.2767 132.059 74.3748 111.76 75.8104 96.0937L76.0312 93.9424L76.6386 96.0386C82.4362 115.731 91.9331 129.852 95.9085 132.61L110.485 120.64C108.939 118.655 100.823 108.119 98.2828 99.1276C95.6877 89.9708 91.5466 65.3689 90.9392 61.8386L75.1478 65.4241L75.0374 65.038C74.7613 64.0451 74.5405 63.328 74.43 62.8867L59.1356 68.8441C59.0803 81.4209 52.6754 127.646 52.0128 132.5Z" fill="#030047"/>
<path d="M87.0182 65.5896C86.8525 65.5896 86.6869 65.4792 86.6317 65.3137C86.4108 64.8173 86.19 64.3208 85.9691 63.8244C85.8587 63.6037 85.9691 63.3831 86.19 63.2728C86.4108 63.1625 86.6317 63.2728 86.7421 63.4934C86.963 63.9899 87.1838 64.4863 87.4047 65.0379C87.5151 65.2586 87.4047 65.4792 87.1838 65.5896C87.1286 65.5344 87.0734 65.5896 87.0182 65.5896Z" fill="#030047"/>
<path d="M102.754 119.041C102.588 119.041 102.478 118.985 102.368 118.82C101.815 117.882 101.263 116.834 100.711 115.731C100.601 115.51 100.711 115.29 100.877 115.179C101.098 115.069 101.318 115.179 101.429 115.345C101.981 116.448 102.533 117.441 103.085 118.379C103.196 118.599 103.141 118.82 102.92 118.93C102.864 118.985 102.809 119.041 102.754 119.041ZM99.5516 112.807C99.386 112.807 99.2203 112.697 99.1651 112.587C98.6682 111.539 98.2265 110.491 97.7295 109.387C97.6191 109.167 97.7295 108.946 97.9504 108.836C98.1712 108.725 98.3921 108.836 98.5025 109.056C98.9443 110.16 99.4412 111.208 99.8829 112.256C99.9933 112.476 99.8829 112.697 99.6621 112.807C99.6621 112.752 99.6068 112.807 99.5516 112.807ZM96.8461 106.354C96.6804 106.354 96.5148 106.243 96.4596 106.078C96.0731 105.03 95.7418 103.926 95.3553 102.713C95.3001 102.492 95.4105 102.272 95.6314 102.216C95.8522 102.161 96.0731 102.272 96.1283 102.492C96.4596 103.651 96.8461 104.809 97.1774 105.802C97.2326 106.023 97.1222 106.243 96.9565 106.354C96.9565 106.298 96.9013 106.354 96.8461 106.354ZM94.9136 99.6239C94.7479 99.6239 94.5823 99.5135 94.5271 99.2929C94.251 98.2448 94.0302 97.0864 93.7541 95.8729C93.6989 95.6523 93.8645 95.4316 94.0854 95.3765C94.3062 95.3213 94.5271 95.4868 94.5823 95.7074C94.8584 96.921 95.0792 98.0794 95.3553 99.1274C95.4105 99.3481 95.2449 99.5687 95.024 99.6239C94.9688 99.6239 94.9136 99.6239 94.9136 99.6239ZM93.478 92.7287C93.2571 92.7287 93.0915 92.5632 93.0915 92.3978C92.8706 91.2394 92.6498 90.1361 92.4842 88.9777C92.4289 88.7571 92.5946 88.5365 92.8154 88.4813C93.0363 88.4262 93.2572 88.5916 93.3124 88.8123C93.5332 89.9707 93.6989 91.129 93.9197 92.2323C93.9749 92.4529 93.8093 92.6735 93.5884 92.7287C93.5332 92.7287 93.5332 92.7287 93.478 92.7287ZM92.2633 85.8887C92.0424 85.8887 91.8768 85.7232 91.8768 85.5577C91.6559 84.3994 91.4351 83.241 91.2694 82.1378C91.2142 81.9171 91.3798 81.6965 91.6007 81.6413C91.8216 81.5862 92.0424 81.7516 92.0976 81.9723C92.3185 83.1307 92.5393 84.2891 92.705 85.4475C92.7602 85.6681 92.5946 85.8887 92.3737 85.9439C92.3185 85.8887 92.2633 85.8887 92.2633 85.8887ZM90.9381 78.9936C90.7725 78.9936 90.5516 78.8832 90.5516 78.6626C90.2756 77.4491 90.0547 76.3459 89.7786 75.2426C89.7234 75.022 89.889 74.8013 90.1099 74.7462C90.3308 74.691 90.5516 74.8565 90.6068 75.0771C90.8829 76.1803 91.1038 77.2836 91.3799 78.4971C91.4351 78.7178 91.2694 78.9384 91.0485 78.9936C90.9933 78.9936 90.9933 78.9936 90.9381 78.9936ZM89.2817 72.2088C89.116 72.2088 88.9504 72.0984 88.8952 71.933C88.5639 70.7746 88.2326 69.6713 87.8461 68.6233C87.7909 68.4026 87.9013 68.182 88.1222 68.0717C88.343 68.0165 88.5639 68.1268 88.6743 68.3475C89.0056 69.3955 89.3921 70.5539 89.7234 71.7123C89.7786 71.9329 89.6682 72.1536 89.4473 72.2088C89.3921 72.1536 89.3369 72.2088 89.2817 72.2088Z" fill="#030047"/>
<path d="M105.626 123.288C105.515 123.288 105.405 123.233 105.294 123.178C105.294 123.178 104.908 122.737 104.245 121.799C104.135 121.633 104.135 121.358 104.356 121.247C104.521 121.137 104.798 121.137 104.908 121.358C105.515 122.24 105.847 122.626 105.902 122.626C106.067 122.792 106.067 123.068 105.847 123.233C105.791 123.233 105.681 123.288 105.626 123.288Z" fill="#030047"/>
<path d="M55.712 139.506C54.2764 138.513 52.8409 137.52 51.4053 136.527C51.5157 136.362 51.6261 136.251 51.7365 136.086C53.1721 137.079 54.6077 138.072 55.9881 139.009C56.2642 139.23 55.9881 139.671 55.712 139.506Z" fill="white"/>
<path d="M53.2276 141.381C52.0681 140.333 50.8534 139.34 49.6387 138.292C49.7491 138.182 49.9148 138.072 50.0252 137.906C51.1847 138.954 52.3994 139.947 53.6141 140.94C53.8902 141.271 53.5037 141.657 53.2276 141.381Z" fill="white"/>
<path d="M75.8654 92.453C75.6997 92.453 75.5341 92.3427 75.4789 92.1772C74.3194 89.364 72.9942 77.4492 72.7181 75.2979C72.166 75.2427 70.7856 75.0221 68.301 74.5256C68.0801 74.4704 67.9145 74.2498 67.9697 74.0292C68.0249 73.8085 68.2458 73.643 68.4666 73.6982C71.8347 74.3601 73.1046 74.5256 73.1046 74.5256L73.436 74.5808L73.4912 74.9117C73.4912 75.0772 75.0372 88.9778 76.1967 91.9014C76.3071 92.122 76.1967 92.3427 75.9758 92.453C75.9758 92.453 75.9206 92.453 75.8654 92.453Z" fill="#030047"/>
<path d="M63.9391 28.1894C58.3624 30.0649 53.7244 33.871 54.9391 49.8678C56.1538 65.8645 56.4851 70.0016 56.4851 70.0016L92.3747 64.9268C92.3747 64.8716 81.8839 22.1217 63.9391 28.1894Z" fill="#4286F4"/>
<path d="M56.0985 70.4434L56.0433 70.0021C56.0433 69.947 55.6567 65.6995 54.4972 49.8683C53.3377 34.5335 57.3684 29.9551 63.7733 27.8038C66.8653 26.7557 69.9574 27.0867 72.9389 28.6864C85.4727 35.5815 92.485 63.5483 92.761 64.7618L92.8714 65.2031L56.0985 70.4434ZM64.0494 28.576C59.1905 30.2309 54.1107 33.3199 55.3254 49.8131C56.3193 62.8863 56.7058 68.0715 56.8162 69.5056L91.8224 64.5411C90.8837 60.9005 83.9267 35.6918 72.5524 29.4586C69.7917 27.9141 66.9206 27.6383 64.0494 28.576Z" fill="#4286F4"/>
<path d="M78.9031 49.8677C83.762 49.8677 88.5657 49.8125 93.4246 49.7574C92.0442 39.2216 83.1547 27.1964 68.7988 25.9277V36.0774C73.6577 36.2429 78.2405 43.9103 78.9031 49.8677Z" fill="#4286F4"/>
<path d="M78.5159 50.2542L78.4607 49.8681C77.7982 43.9107 73.2706 36.5742 68.743 36.4087H68.3564V25.4316L68.7982 25.4868C83.2092 26.7555 92.43 38.891 93.8104 49.7026L93.8656 50.1439H93.4239C88.6754 50.199 83.7613 50.2542 78.9024 50.2542H78.5159ZM69.1847 35.6365C73.9331 36.1881 78.4055 43.3039 79.2337 49.4268C83.8166 49.4268 88.3994 49.3716 92.927 49.3165C91.381 39.1116 82.6571 27.8036 69.1847 26.3694V35.6365Z" fill="#4286F4"/>
<path d="M82.9877 14.3444L86.7423 4.30506C88.2883 0.16797 82.8772 -1.873 81.3312 2.26409L77.6318 12.138C79.4539 12.8551 81.2208 13.5721 82.9877 14.3444Z" fill="#030047"/>
<path d="M29.4851 147.007C28.7673 146.732 28.436 145.904 28.7121 145.242L32.0802 136.692C32.3563 135.975 33.1845 135.644 33.8471 135.92C34.5649 136.196 34.8961 137.023 34.6201 137.685L31.252 146.235C31.0311 146.952 30.2029 147.283 29.4851 147.007Z" fill="#030047"/>
<path d="M45.2765 128.915L87.0188 17.1583C90.7734 7.28444 75.3685 1.3822 71.6139 11.3112L29.8716 123.068C27.9943 128.032 27.7182 140.388 31.528 141.878C35.4483 143.367 43.3992 133.879 45.2765 128.915Z" fill="white"/>
<path d="M32.4665 142.429C32.1352 142.429 31.7487 142.374 31.4726 142.264C27.2763 140.664 27.6076 128.032 29.5401 122.957L71.2824 11.2006C73.3253 5.84995 78.4603 4.96739 82.3253 6.45674C86.2456 7.94609 89.5032 11.9729 87.4603 17.3235L45.718 129.08C44.7241 131.673 42.2395 135.258 39.4787 138.127C37.8223 139.837 34.8407 142.429 32.4665 142.429ZM78.902 6.62222C76.1413 6.62222 73.3806 8.00124 72.0554 11.4764L30.3131 123.233C28.3254 128.473 28.3806 140.223 31.7487 141.491C33.2395 142.043 35.945 140.609 38.9266 137.52C41.5769 134.817 44.0615 131.231 44.945 128.804L86.6873 17.0477C88.5094 12.1935 85.583 8.55284 82.0493 7.22898C81.0554 6.84285 79.9511 6.62222 78.902 6.62222Z" fill="#030047"/>
<path d="M70.7299 13.793L68.8525 18.8678C73.9323 20.9639 79.012 23.0601 84.0366 25.2113L85.9691 19.971C80.9446 17.8749 75.8648 15.7788 70.7299 13.793Z" fill="#030047"/>
<path d="M42.9576 133.162C44.0067 131.617 44.8349 130.128 45.2766 128.914L59.2459 91.5702C54.1662 89.4741 49.0864 87.4331 43.8963 85.5576L29.8717 123.122C29.5404 124.06 29.2091 125.274 28.9883 126.598C33.6263 128.859 38.2643 131.066 42.9576 133.162Z" fill="#030047"/>
<path d="M90.2202 40.3799C86.1343 42.5312 82.1037 44.7376 78.4043 47.4957C79.3429 51.026 79.2325 54.3908 77.4104 55.9353C74.981 58.0315 71.5025 57.866 68.0791 56.7076C67.0853 51.026 64.1589 49.5366 61.0669 48.3783C58.6374 47.4957 58.4718 49.8676 62.2264 52.6808L62.2816 53.9495C61.3982 53.4531 60.6252 52.9015 59.9074 52.405C55.2693 49.0953 54.8276 52.9566 54.8276 52.9566C51.7908 53.2324 52.7295 56.4318 52.7295 56.4318C50.7417 58.6934 51.1282 59.9621 60.1282 66.6366C70.5086 74.304 90.1098 73.6972 93.3123 55.8802C94.1957 51.1915 93.0914 45.5099 90.2202 40.3799Z" fill="white"/>
<path d="M74.7053 71.7669C69.4599 71.7669 64.0489 70.1121 59.9078 67.0231C53.5581 62.2792 51.5151 60.3486 51.3495 58.6386C51.2391 57.756 51.736 57.0389 52.2881 56.377C52.1777 55.8805 52.012 54.667 52.6746 53.7292C53.0611 53.1225 53.6685 52.7915 54.5519 52.626C54.6624 52.1296 54.9936 51.247 55.8771 50.8609C56.9261 50.3644 58.3618 50.8057 60.1838 52.0744C60.736 52.4605 61.2881 52.8467 61.8955 53.1776V52.8467C59.6869 51.1367 58.5826 49.3163 59.1347 48.2683C59.3004 47.9925 59.8525 47.3857 61.2881 47.9373C64.4906 49.1509 67.4722 50.6954 68.5212 56.3218C72.3311 57.4802 75.2574 57.2596 77.2452 55.5496C78.7912 54.2257 79.1225 51.247 78.0734 47.496L78.0182 47.2202L78.239 47.0547C82.1593 44.1863 86.4108 41.8696 90.1102 39.9389L90.4967 39.7734L90.7176 40.1044C93.5887 45.3447 94.7482 51.0815 93.8648 55.9357C92.2636 64.7615 86.9077 68.6228 82.7666 70.2776C80.1715 71.2705 77.466 71.7669 74.7053 71.7669ZM56.7605 51.5779C56.5397 51.5779 56.3188 51.6331 56.1531 51.6883C55.3801 52.0192 55.2697 53.0673 55.2697 53.0673L55.2145 53.3983L54.8832 53.4534C54.1654 53.5086 53.6133 53.7844 53.3372 54.2257C52.7851 55.0531 53.1163 56.377 53.1163 56.377L53.1716 56.5976L53.0059 56.7631C52.2881 57.5354 52.0673 58.0318 52.1225 58.5834C52.2881 59.9625 54.4415 62.0034 60.3495 66.3611C66.4783 70.9395 75.5335 72.2634 82.2697 69.5605C86.2452 67.9608 91.3249 64.3202 92.8709 55.8805C93.6991 51.3021 92.6501 45.8964 89.9998 40.9318C86.466 42.7522 82.4905 44.9586 78.7912 47.6615C79.8402 51.6331 79.3985 54.7773 77.6317 56.2667C75.3679 58.1973 71.9998 58.4731 67.8587 57.1492L67.6378 57.0941L67.5826 56.8734C66.6439 51.4676 63.9936 50.0334 60.8464 48.875C60.1838 48.5992 59.7973 48.7096 59.6869 48.875C59.466 49.206 59.9078 50.6402 62.3924 52.5157L62.5581 52.626L62.6133 54.8325L61.9507 54.4463C61.1225 53.9499 60.2942 53.3983 59.5765 52.9018C58.4722 51.9641 57.4783 51.5779 56.7605 51.5779Z" fill="#030047"/>
<path d="M56.7609 54.9431C56.2087 54.5018 55.8222 53.9502 55.6013 53.2331C55.4909 52.9021 54.994 53.0124 55.0492 53.3986C55.27 54.1708 55.7118 54.8328 56.3192 55.3292C56.6504 55.5498 57.0369 55.1637 56.7609 54.9431Z" fill="#030047"/>
<path d="M54.7175 58.3079C54.0549 58.1425 53.558 57.646 53.3924 56.9841C53.2819 56.6531 52.785 56.7634 52.8402 57.1495C53.0611 57.977 53.7237 58.6389 54.5519 58.8596C54.9384 58.9147 55.104 58.3631 54.7175 58.3079Z" fill="#030047"/>
<path d="M50.577 72.8712C47.761 65.9761 46.988 55.2197 56.8715 44.3529C57.258 43.9668 57.5892 43.5806 57.9205 43.1945C58.9144 38.6161 60.1291 34.1481 62.2272 29.9007C61.896 29.4042 61.5647 29.1836 61.5647 29.1836C51.7365 33.6517 38.9267 40.602 35.2825 58.9706C32.9635 70.4442 37.1046 79.9319 43.0125 83.7932C46.6567 86.1651 49.5831 89.3093 51.6813 88.4819C51.6813 88.4819 54.2211 88.868 55.8224 86.2754C55.8224 86.2754 58.4727 86.2202 58.1966 83.6277C58.0309 82.2486 56.4297 80.3732 54.7733 78.4425L55.7672 77.8357C57.4788 79.3251 61.0125 80.5387 60.0739 77.7806C59.1352 75.2983 56.0984 73.6987 50.577 72.8712Z" fill="white"/>
<path d="M50.908 89.0329C49.362 89.0329 47.5951 87.709 45.6074 86.1645C44.724 85.5026 43.7853 84.7855 42.7362 84.1235C37.0491 80.3726 32.3559 71.1055 34.8405 58.8597C38.3191 41.4839 49.6381 34.1475 61.3436 28.7969L61.5645 28.6865L61.7301 28.7969C61.7853 28.7969 62.1166 29.0727 62.5031 29.6243L62.6688 29.8449L62.5583 30.0656C60.3497 34.5336 59.1902 39.2223 58.3068 43.2491V43.3594L58.2516 43.4146C57.9203 43.8007 57.589 44.1868 57.2025 44.6281C46.3252 56.6533 49.0859 67.9613 50.908 72.4845C56.4847 73.312 59.5215 75.0219 60.4049 77.6697C60.7914 78.828 60.4602 79.3797 60.0737 79.6555C59.0798 80.3174 56.9264 79.3797 55.6565 78.3868L55.27 78.6074C56.9264 80.4829 58.362 82.248 58.4724 83.6271C58.5828 84.5096 58.362 85.2268 57.8651 85.7784C57.2577 86.4955 56.3191 86.661 55.9326 86.7161C54.4418 89.0329 52.178 88.9777 51.6258 88.9777C51.405 88.9777 51.1289 89.0329 50.908 89.0329ZM61.454 29.6794C50.0246 34.9197 39.0369 42.1459 35.6136 59.0252C33.2393 70.8297 37.8773 79.9864 43.1779 83.4616C44.227 84.1235 45.1657 84.8406 46.1043 85.5577C48.3129 87.2125 50.1902 88.6467 51.5154 88.1503L51.6258 88.0951H51.7362C51.8466 88.0951 54.0552 88.3709 55.4356 86.0542L55.546 85.8335H55.7669C55.7669 85.8335 56.7608 85.7784 57.3681 85.1716C57.6994 84.7855 57.8098 84.289 57.7546 83.6822C57.6442 82.4687 56.043 80.5932 54.3866 78.7177L54.0552 78.3316L55.7669 77.3387L55.9878 77.5593C57.2577 78.6626 59.135 79.3245 59.6319 78.9935C59.908 78.8281 59.7424 78.2213 59.6319 78.0007C58.8589 75.6287 55.8773 74.0842 50.5767 73.312L50.3559 73.2568L50.2454 73.0361C48.3681 68.5129 45.2761 56.6533 56.5951 44.0765C56.9264 43.6904 57.2577 43.3594 57.5338 42.9733C58.362 39.0017 59.5767 34.3681 61.7301 29.9552C61.6197 29.8449 61.5092 29.7346 61.454 29.6794Z" fill="#030047"/>
<path d="M51.2396 52.6271C52.5096 49.9242 54.3317 48.1039 56.8715 45.3458C57.258 44.9597 57.7549 45.3458 58.0862 44.9045C59.0801 40.3262 60.074 34.0929 62.1721 29.9007C61.8409 29.4042 61.5096 29.1836 61.5096 29.1836C55.0494 32.1071 47.2642 36.1891 41.6875 43.8565C44.7795 46.8352 48.0372 49.7036 51.2396 52.6271Z" fill="#4286F4"/>
<path d="M51.4051 53.2884L51.0186 52.9023C50.3561 52.2955 49.6935 51.7439 49.0861 51.1371C46.5462 48.8755 43.9512 46.5036 41.4665 44.1317L41.1904 43.8559L41.4113 43.58C46.8776 36.1333 54.2211 32.0514 61.399 28.7969L61.6199 28.6865L61.7855 28.7969C61.8407 28.7969 62.172 29.0727 62.5585 29.6243L62.7242 29.8449L62.6137 30.0656C60.9021 33.5407 59.9082 38.3397 59.0248 42.5872C58.8591 43.4146 58.6935 44.1868 58.5279 44.9591V45.0694L58.4726 45.1246C58.1966 45.4555 57.8101 45.4555 57.5892 45.4555C57.3683 45.4555 57.3131 45.4555 57.2579 45.5107C56.9266 45.8417 56.6506 46.1726 56.3193 46.5036C54.2763 48.7652 52.7855 50.3649 51.6812 52.6816L51.4051 53.2884ZM42.2395 43.8007C44.6138 46.1175 47.1536 48.3791 49.5831 50.5303C50.08 50.9716 50.6321 51.4681 51.1291 51.9094C52.2334 49.7581 53.7794 48.1033 55.6567 46.0072C55.9328 45.6762 56.2641 45.3452 56.5953 45.0142C56.9266 44.6833 57.2579 44.6833 57.534 44.6833C57.6444 44.6833 57.6996 44.6833 57.7548 44.6833C57.9205 43.9662 58.0309 43.2491 58.1966 42.4768C59.0248 38.2846 60.0186 33.4855 61.7303 29.9552C61.6199 29.8449 61.5647 29.7346 61.4542 29.6794C54.5524 32.8236 47.4849 36.7401 42.2395 43.8007Z" fill="#4286F4"/>
<path d="M55.491 85.9442C54.3867 83.9033 53.1168 81.9175 51.6812 80.042C51.4603 79.7662 50.9634 80.042 51.1842 80.3178C52.6198 82.1933 53.8346 84.1239 54.9941 86.22C55.2149 86.551 55.6567 86.2752 55.491 85.9442Z" fill="#030047"/>
<path d="M52.2891 87.8745C51.2952 85.5578 49.8045 83.572 47.7615 82.0826C47.4854 81.862 47.2094 82.3584 47.4854 82.5791C49.418 83.9581 50.8535 85.8336 51.7922 88.04C51.9026 88.3158 52.3995 88.2055 52.2891 87.8745Z" fill="#030047"/>
<path d="M54.6622 46.0072C54.4414 46.0072 54.2757 45.8417 54.2757 45.6762L53.7236 42.4769C53.6684 42.2562 53.834 42.0356 54.0549 41.9804C54.2757 41.9253 54.4966 42.0908 54.5518 42.3114L55.104 45.5107C55.1592 45.7314 54.9935 45.952 54.7727 46.0072C54.6622 46.0072 54.6622 46.0072 54.6622 46.0072Z" fill="#030047"/>
<path d="M25.0128 147.282C24.9024 147.282 24.7367 147.227 24.6815 147.117L14.7981 133.051C14.6877 132.885 14.6877 132.61 14.9086 132.499C15.0742 132.389 15.3503 132.389 15.4607 132.61L25.3441 146.676C25.4545 146.841 25.4545 147.117 25.2337 147.227C25.1785 147.282 25.0681 147.282 25.0128 147.282Z" fill="#4286F4"/>
<path d="M20.8714 147.282C20.8161 147.282 20.7057 147.282 20.6505 147.227L13.4726 142.373C13.3069 142.262 13.2517 141.987 13.3621 141.821C13.4726 141.656 13.7486 141.6 13.9143 141.711L21.0922 146.565C21.2578 146.675 21.3131 146.951 21.2026 147.117C21.1474 147.227 21.037 147.282 20.8714 147.282Z" fill="#4286F4"/>
<path d="M66.1478 18.9239C66.0925 16.9932 64.16 15.8348 62.0067 16.8829C61.6754 17.0484 61.3993 17.269 61.068 17.5448C61.068 17.5448 61.068 17.5449 61.0128 17.4897C57.976 14.2903 53.1723 13.849 50.3011 16.5519C47.43 19.2548 48.0926 23.6126 50.522 27.3084C52.7858 30.618 57.479 32.3832 61.2336 28.2461C62.4484 26.8671 63.1662 25.0468 63.2214 23.1713C65.2091 22.5645 66.1478 20.6339 66.1478 18.9239Z" fill="white"/>
<path d="M56.3742 31.1143C56.2086 31.1143 56.0982 31.1143 55.9325 31.1143C53.7239 30.9488 51.6258 29.6249 50.2454 27.584C47.3743 23.3365 47.319 18.9236 50.0797 16.3311C51.5705 14.952 53.5583 14.2901 55.7116 14.4556C57.7546 14.6211 59.6319 15.5588 61.1227 17.0482C61.3435 16.8827 61.6196 16.7172 61.8405 16.6069C63 16.0001 64.2147 16.0001 65.1534 16.5517C65.9816 17.0482 66.5337 17.9308 66.5337 18.9788C66.589 20.6337 65.7055 22.7298 63.6073 23.5572C63.4969 25.4327 62.7792 27.1978 61.5644 28.5769C59.6871 30.6178 57.7546 31.1143 56.3742 31.1143ZM54.9387 15.2278C53.2822 15.2278 51.7362 15.8346 50.5767 16.8827C47.5951 19.6959 48.865 24.1088 50.8528 27.0875C52.1227 28.963 54 30.1214 55.9325 30.2317C57.7546 30.342 59.4663 29.5698 60.9018 27.9701C62.0614 26.7014 62.7239 24.9914 62.7791 23.1711V22.8953L63.0552 22.7849C64.8773 22.1782 65.7055 20.3578 65.6503 18.9236C65.6503 18.2065 65.2638 17.5446 64.6564 17.2137C63.9386 16.7724 63 16.8275 62.1166 17.2688C61.8405 17.4343 61.5644 17.5998 61.2331 17.8756L60.957 18.1514L60.681 17.8756C59.2454 16.3862 57.4233 15.4485 55.4908 15.283C55.3804 15.2279 55.1595 15.2278 54.9387 15.2278Z" fill="#030047"/>
<path d="M55.2271 23.6668C55.3518 23.3885 55.2272 23.062 54.9489 22.9375C54.6705 22.813 54.3437 22.9376 54.219 23.2159C54.0943 23.4941 54.2188 23.8207 54.4972 23.9452C54.7756 24.0697 55.1023 23.9451 55.2271 23.6668Z" fill="#030047"/>
<path d="M53.3926 27.9143C52.6748 26.9214 52.1227 25.8182 51.6809 24.6598C51.5705 24.3288 52.0675 24.1081 52.1779 24.4391C52.5644 25.5423 53.1165 26.5904 53.7791 27.5833C54.0552 27.8591 53.6134 28.1901 53.3926 27.9143Z" fill="#030047"/>
<path d="M49.583 21.1849C51.2395 20.5782 56.3192 16.1652 58.2517 19.3646C58.7487 20.192 58.7486 20.854 59.6873 20.6333C60.5707 20.2472 60.4051 19.144 60.4051 19.144C61.0677 18.2062 61.2885 17.2685 62.0063 16.8823C63.9941 13.683 59.0799 9.71141 56.3192 12.0833C56.3192 12.0833 50.1904 10.594 48.4235 14.4001C45.2762 15.6688 44.1168 18.0959 44.7793 20.3575C45.9388 24.2188 49.583 21.1849 49.583 21.1849Z" fill="#030047"/>
<path d="M61.6198 20.8536C61.5646 19.5298 62.3928 18.3714 63.6627 17.9852C63.994 17.8749 64.2149 18.4266 63.8836 18.4817C62.8897 18.7575 62.1719 19.6952 62.2271 20.7433C62.1719 21.1846 61.6198 21.2398 61.6198 20.8536Z" fill="#030047"/>
</svg>
