<svg width="18" height="19" viewBox="0 0 18 19" fill="none" xmlns="http://www.w3.org/2000/svg">
<path d="M12.402 18.5V11.534H14.735L15.084 8.826H12.402V7.098C12.402 6.314 12.62 5.779 13.744 5.779H15.178V3.357C14.4838 3.28334 13.7861 3.24762 13.088 3.25C11.021 3.25 9.606 4.512 9.606 6.83V8.826H7.268V11.534H9.606V18.5H1C0.734784 18.5 0.48043 18.3946 0.292893 18.2071C0.105357 18.0196 0 17.7652 0 17.5V1.5C0 1.23478 0.105357 0.98043 0.292893 0.792893C0.48043 0.605357 0.734784 0.5 1 0.5H17C17.2652 0.5 17.5196 0.605357 17.7071 0.792893C17.8946 0.98043 18 1.23478 18 1.5V17.5C18 17.7652 17.8946 18.0196 17.7071 18.2071C17.5196 18.3946 17.2652 18.5 17 18.5H12.402Z" fill="#454649" fill-opacity="0.4"/>
</svg>
