<svg width="24" height="24" viewBox="0 0 24 24" fill="none" xmlns="http://www.w3.org/2000/svg">
<path d="M13.4855 10.9082C13.3697 10.9058 13.2546 10.9274 13.1476 10.9716C13.0405 11.0158 12.9437 11.0817 12.8633 11.1651C12.7829 11.2485 12.7206 11.3476 12.6803 11.4562C12.6401 11.5648 12.6227 11.6806 12.6293 11.7963C12.6293 12.0282 12.7215 12.2507 12.8855 12.4147C13.0494 12.5787 13.2719 12.6709 13.5039 12.6709C13.7358 12.6709 13.9583 12.5787 14.1223 12.4147C14.2864 12.2507 14.3785 12.0282 14.3785 11.7963C14.3845 11.6776 14.3656 11.5591 14.3227 11.4483C14.2799 11.3375 14.2143 11.2369 14.13 11.1532C14.0458 11.0694 13.9449 11.0043 13.8339 10.9621C13.7229 10.9199 13.6042 10.9015 13.4855 10.9082Z" fill="#454649" fill-opacity="0.4"/>
<path d="M22.1284 4.69178C21.7191 4.28114 21.2325 3.95559 20.6967 3.73389C20.1609 3.51219 19.5865 3.39872 19.0067 3.40004H5.36267C4.78295 3.39956 4.20883 3.51338 3.67315 3.735C3.13747 3.95663 2.65073 4.2817 2.24081 4.69163C1.83089 5.10155 1.50581 5.58827 1.28419 6.12396C1.06257 6.65964 0.948737 7.23377 0.94922 7.81348V14.3798C0.948737 14.9595 1.06257 15.5337 1.28419 16.0694C1.50581 16.6051 1.83089 17.0918 2.24081 17.5017C2.65073 17.9116 3.13747 18.2367 3.67315 18.4583C4.20883 18.68 4.78295 18.7937 5.36267 18.7933H10.3951L11.8483 21.7486C11.8719 21.8192 11.9171 21.8805 11.9774 21.9239C12.0378 21.9674 12.1103 21.9908 12.1847 21.9908C12.2591 21.9908 12.3316 21.9674 12.3919 21.9239C12.4523 21.8805 12.4974 21.8192 12.5211 21.7486L13.9743 18.7883H19.0067C19.5859 18.7888 20.1597 18.6752 20.6951 18.4539C21.2304 18.2326 21.7169 17.9079 22.1268 17.4986C22.5366 17.0891 22.8618 16.603 23.0837 16.0678C23.3057 15.5327 23.4199 14.9591 23.4202 14.3798V7.81348C23.4215 7.23365 23.308 6.6593 23.0862 6.12352C22.8646 5.58774 22.539 5.10114 22.1284 4.69178ZM5.9009 13.9199C5.67611 13.9295 5.45247 13.8831 5.25005 13.7849C5.04764 13.6867 4.87281 13.5398 4.74127 13.3573H4.7168V13.7878H3.34432V8.00187H4.74127V10.2037C4.8904 10.0385 5.07333 9.90735 5.27764 9.81912C5.48195 9.7309 5.70286 9.68768 5.92535 9.69238C6.19046 9.70086 6.45115 9.76252 6.69196 9.87366C6.93278 9.98482 7.14881 10.1432 7.32724 10.3394C7.50568 10.5357 7.64288 10.7658 7.73071 11.016C7.81853 11.2663 7.85519 11.5316 7.8385 11.7964C7.85399 12.0638 7.81583 12.3316 7.72628 12.584C7.63673 12.8365 7.49758 13.0684 7.31704 13.2663C7.1365 13.4642 6.91821 13.6239 6.67501 13.7362C6.4318 13.8484 6.16861 13.9109 5.9009 13.9199ZM10.2874 13.7853H8.94187V10.4508C8.94187 9.83183 8.83423 9.29361 8.296 9.21287V7.86731C9.48009 7.86731 10.2874 8.72357 10.2874 10.1817V13.7853ZM13.5168 13.8929C13.2234 13.9195 12.9276 13.8844 12.6485 13.7903C12.3694 13.6961 12.1129 13.5449 11.8954 13.3462C11.678 13.1474 11.5043 12.9056 11.3855 12.636C11.2667 12.3664 11.2053 12.0751 11.2053 11.7805C11.2053 11.4859 11.2667 11.1945 11.3855 10.9249C11.5043 10.6553 11.678 10.4135 11.8954 10.2147C12.1129 10.016 12.3694 9.86474 12.6485 9.77058C12.9276 9.67644 13.2234 9.64148 13.5168 9.66791C13.8104 9.64672 14.1052 9.68576 14.383 9.78264C14.6609 9.87953 14.9162 10.0322 15.1329 10.2313C15.3496 10.4304 15.5233 10.6718 15.6435 10.9405C15.7636 11.2092 15.8274 11.4996 15.8311 11.7939C15.8295 12.0878 15.7668 12.3781 15.6471 12.6465C15.5273 12.9149 15.3532 13.1554 15.1356 13.3531C14.9181 13.5506 14.6617 13.7008 14.3831 13.7942C14.1045 13.8875 13.8095 13.922 13.5168 13.8955V13.8929ZM20.9443 13.4355C20.9443 15.104 20.11 15.9382 18.6568 15.9382H18.3877V14.6758H18.6568C19.3834 14.6758 19.5988 14.2184 19.5988 13.5455V13.3573C19.4475 13.5287 19.261 13.6655 19.0519 13.7584C18.843 13.8514 18.6165 13.8981 18.3877 13.8955C18.1295 13.8929 17.8746 13.838 17.6383 13.7338C17.4021 13.6298 17.1893 13.4788 17.0131 13.2901C16.837 13.1013 16.701 12.8788 16.6134 12.6359C16.5259 12.393 16.4886 12.1348 16.504 11.8771C16.4861 11.6055 16.5232 11.3331 16.6132 11.0762C16.7032 10.8193 16.8442 10.5833 17.0277 10.3822C17.2111 10.1811 17.4333 10.0192 17.6809 9.90614C17.9285 9.79306 18.1964 9.73118 18.4685 9.72418C18.6875 9.70725 18.9071 9.74804 19.1055 9.84248C19.3037 9.93692 19.4739 10.0817 19.5988 10.2624H19.6257V9.83183L20.9443 9.85875V13.4355Z" fill="#454649" fill-opacity="0.4"/>
<path d="M18.7914 10.8813C18.6732 10.8754 18.555 10.8942 18.4446 10.9368C18.3342 10.9793 18.2339 11.0445 18.1502 11.1282C18.0665 11.2119 18.0014 11.3122 17.9588 11.4226C17.9163 11.5331 17.8973 11.6512 17.9033 11.7694C17.8952 11.8881 17.9126 12.0072 17.9543 12.1186C17.9961 12.2301 18.0612 12.3313 18.1454 12.4154C18.2295 12.4996 18.3308 12.5647 18.4421 12.6065C18.5536 12.6482 18.6726 12.6656 18.7914 12.6575C18.9084 12.6644 19.0256 12.6458 19.1346 12.6032C19.2438 12.5605 19.3425 12.4948 19.4238 12.4104C19.5052 12.326 19.5674 12.2251 19.606 12.1144C19.6446 12.0038 19.6588 11.8861 19.6476 11.7694C19.6566 11.6532 19.6408 11.5365 19.6013 11.4268C19.5618 11.3172 19.4997 11.2171 19.4188 11.1332C19.3379 11.0494 19.2402 10.9835 19.1321 10.9401C19.0239 10.8967 18.9078 10.8767 18.7914 10.8813Z" fill="#454649" fill-opacity="0.4"/>
<path d="M5.5785 12.6843C6.06898 12.6843 6.46657 12.2867 6.46657 11.7963C6.46657 11.3058 6.06898 10.9082 5.5785 10.9082C5.08804 10.9082 4.69043 11.3058 4.69043 11.7963C4.69043 12.2867 5.08804 12.6843 5.5785 12.6843Z" fill="#454649" fill-opacity="0.4"/>
</svg>
