<svg width="130" height="21" viewBox="0 0 130 21" fill="none" xmlns="http://www.w3.org/2000/svg">
<path d="M9.287 20.324C7.433 20.324 5.831 19.919 4.481 19.109C3.149 18.281 2.114 17.138 1.376 15.68C0.638 14.204 0.269 12.494 0.269 10.55C0.269 8.624 0.638 6.932 1.376 5.474C2.114 3.998 3.149 2.846 4.481 2.018C5.831 1.19 7.433 0.776 9.287 0.776C11.447 0.776 13.202 1.298 14.552 2.342C15.92 3.368 16.793 4.808 17.171 6.662H14.66C14.372 5.492 13.778 4.556 12.878 3.854C11.996 3.134 10.799 2.774 9.287 2.774C7.937 2.774 6.758 3.089 5.75 3.719C4.742 4.331 3.959 5.222 3.401 6.392C2.861 7.544 2.591 8.93 2.591 10.55C2.591 12.17 2.861 13.565 3.401 14.735C3.959 15.887 4.742 16.778 5.75 17.408C6.758 18.02 7.937 18.326 9.287 18.326C10.799 18.326 11.996 17.984 12.878 17.3C13.778 16.598 14.372 15.671 14.66 14.519H17.171C16.793 16.337 15.92 17.759 14.552 18.785C13.202 19.811 11.447 20.324 9.287 20.324ZM26.3166 20.324C25.0386 20.324 23.9046 20.036 22.9146 19.46C21.9246 18.866 21.1416 18.047 20.5656 17.003C20.0076 15.959 19.7286 14.726 19.7286 13.304C19.7286 11.9 20.0076 10.676 20.5656 9.632C21.1236 8.57 21.8976 7.751 22.8876 7.175C23.8956 6.581 25.0566 6.284 26.3706 6.284C27.6666 6.284 28.7826 6.581 29.7186 7.175C30.6726 7.751 31.4016 8.516 31.9056 9.47C32.4096 10.424 32.6616 11.45 32.6616 12.548C32.6616 12.746 32.6526 12.944 32.6346 13.142C32.6346 13.34 32.6346 13.565 32.6346 13.817H21.9696C22.0236 14.843 22.2576 15.698 22.6716 16.382C23.1036 17.048 23.6346 17.552 24.2646 17.894C24.9126 18.236 25.5966 18.407 26.3166 18.407C27.2526 18.407 28.0356 18.191 28.6656 17.759C29.2956 17.327 29.7546 16.742 30.0426 16.004H32.2836C31.9236 17.246 31.2306 18.281 30.2046 19.109C29.1966 19.919 27.9006 20.324 26.3166 20.324ZM26.3166 8.201C25.2366 8.201 24.2736 8.534 23.4276 9.2C22.5996 9.848 22.1226 10.802 21.9966 12.062H30.4206C30.3666 10.856 29.9526 9.911 29.1786 9.227C28.4046 8.543 27.4506 8.201 26.3166 8.201ZM35.6677 20V6.608H37.7197L37.9087 9.173C38.3227 8.291 38.9527 7.589 39.7987 7.067C40.6447 6.545 41.6887 6.284 42.9307 6.284V8.66H42.3097C41.5177 8.66 40.7887 8.804 40.1227 9.092C39.4567 9.362 38.9257 9.83 38.5297 10.496C38.1337 11.162 37.9357 12.08 37.9357 13.25V20H35.6677ZM50.7683 20C49.5443 20 48.5813 19.703 47.8793 19.109C47.1773 18.515 46.8263 17.444 46.8263 15.896V8.525H44.5043V6.608H46.8263L47.1233 3.395H49.0943V6.608H53.0363V8.525H49.0943V15.896C49.0943 16.742 49.2653 17.318 49.6073 17.624C49.9493 17.912 50.5523 18.056 51.4163 18.056H52.8203V20H50.7683ZM57.2947 3.638C56.8447 3.638 56.4667 3.494 56.1607 3.206C55.8727 2.9 55.7287 2.522 55.7287 2.072C55.7287 1.64 55.8727 1.28 56.1607 0.991998C56.4667 0.703999 56.8447 0.559999 57.2947 0.559999C57.7267 0.559999 58.0957 0.703999 58.4017 0.991998C58.7077 1.28 58.8607 1.64 58.8607 2.072C58.8607 2.522 58.7077 2.9 58.4017 3.206C58.0957 3.494 57.7267 3.638 57.2947 3.638ZM56.1607 20V6.608H58.4287V20H56.1607ZM63.1066 20V8.525H61.0816V6.608H63.1066V4.286C63.1066 2.99 63.4306 2.045 64.0786 1.451C64.7266 0.856999 65.6716 0.559999 66.9136 0.559999H68.2636V2.504H67.2646C66.5806 2.504 66.0946 2.648 65.8066 2.936C65.5186 3.206 65.3746 3.674 65.3746 4.34V6.608H73.6906V20H71.4226V8.525H65.3746V20H63.1066ZM72.5836 4.043C72.1516 4.043 71.7826 3.899 71.4766 3.611C71.1706 3.305 71.0176 2.927 71.0176 2.477C71.0176 2.045 71.1706 1.685 71.4766 1.397C71.7826 1.109 72.1516 0.964999 72.5836 0.964999C73.0336 0.964999 73.4026 1.109 73.6906 1.397C73.9966 1.685 74.1496 2.045 74.1496 2.477C74.1496 2.927 73.9966 3.305 73.6906 3.611C73.4026 3.899 73.0336 4.043 72.5836 4.043ZM83.853 20.324C82.575 20.324 81.423 20.036 80.397 19.46C79.389 18.866 78.588 18.047 77.994 17.003C77.418 15.941 77.13 14.708 77.13 13.304C77.13 11.9 77.418 10.676 77.994 9.632C78.588 8.57 79.389 7.751 80.397 7.175C81.423 6.581 82.575 6.284 83.853 6.284C85.437 6.284 86.769 6.698 87.849 7.526C88.947 8.354 89.64 9.461 89.928 10.847H87.606C87.426 10.019 86.985 9.38 86.283 8.93C85.581 8.462 84.762 8.228 83.826 8.228C83.07 8.228 82.359 8.417 81.693 8.795C81.027 9.173 80.487 9.74 80.073 10.496C79.659 11.252 79.452 12.188 79.452 13.304C79.452 14.42 79.659 15.356 80.073 16.112C80.487 16.868 81.027 17.444 81.693 17.84C82.359 18.218 83.07 18.407 83.826 18.407C84.762 18.407 85.581 18.182 86.283 17.732C86.985 17.264 87.426 16.607 87.606 15.761H89.928C89.658 17.111 88.974 18.209 87.876 19.055C86.778 19.901 85.437 20.324 83.853 20.324ZM97.5504 20.324C96.4344 20.324 95.5074 20.135 94.7694 19.757C94.0314 19.379 93.4824 18.875 93.1224 18.245C92.7624 17.615 92.5824 16.931 92.5824 16.193C92.5824 14.825 93.1044 13.772 94.1484 13.034C95.1924 12.296 96.6144 11.927 98.4144 11.927H102.032V11.765C102.032 10.595 101.726 9.713 101.114 9.119C100.502 8.507 99.6834 8.201 98.6574 8.201C97.7754 8.201 97.0104 8.426 96.3624 8.876C95.7324 9.308 95.3364 9.947 95.1744 10.793H92.8524C92.9424 9.821 93.2664 9.002 93.8244 8.336C94.4004 7.67 95.1114 7.166 95.9574 6.824C96.8034 6.464 97.7034 6.284 98.6574 6.284C100.529 6.284 101.933 6.788 102.869 7.796C103.823 8.786 104.3 10.109 104.3 11.765V20H102.275L102.14 17.597C101.762 18.353 101.204 19.001 100.466 19.541C99.7464 20.063 98.7744 20.324 97.5504 20.324ZM97.9014 18.407C98.7654 18.407 99.5034 18.182 100.115 17.732C100.745 17.282 101.222 16.697 101.546 15.977C101.87 15.257 102.032 14.501 102.032 13.709V13.682H98.6034C97.2714 13.682 96.3264 13.916 95.7684 14.384C95.2284 14.834 94.9584 15.401 94.9584 16.085C94.9584 16.787 95.2104 17.354 95.7144 17.786C96.2364 18.2 96.9654 18.407 97.9014 18.407ZM112.626 20C111.402 20 110.439 19.703 109.737 19.109C109.035 18.515 108.684 17.444 108.684 15.896V8.525H106.362V6.608H108.684L108.981 3.395H110.952V6.608H114.894V8.525H110.952V15.896C110.952 16.742 111.123 17.318 111.465 17.624C111.807 17.912 112.41 18.056 113.274 18.056H114.678V20H112.626ZM123.427 20.324C122.149 20.324 121.015 20.036 120.025 19.46C119.035 18.866 118.252 18.047 117.676 17.003C117.118 15.959 116.839 14.726 116.839 13.304C116.839 11.9 117.118 10.676 117.676 9.632C118.234 8.57 119.008 7.751 119.998 7.175C121.006 6.581 122.167 6.284 123.481 6.284C124.777 6.284 125.893 6.581 126.829 7.175C127.783 7.751 128.512 8.516 129.016 9.47C129.52 10.424 129.772 11.45 129.772 12.548C129.772 12.746 129.763 12.944 129.745 13.142C129.745 13.34 129.745 13.565 129.745 13.817H119.08C119.134 14.843 119.368 15.698 119.782 16.382C120.214 17.048 120.745 17.552 121.375 17.894C122.023 18.236 122.707 18.407 123.427 18.407C124.363 18.407 125.146 18.191 125.776 17.759C126.406 17.327 126.865 16.742 127.153 16.004H129.394C129.034 17.246 128.341 18.281 127.315 19.109C126.307 19.919 125.011 20.324 123.427 20.324ZM123.427 8.201C122.347 8.201 121.384 8.534 120.538 9.2C119.71 9.848 119.233 10.802 119.107 12.062H127.531C127.477 10.856 127.063 9.911 126.289 9.227C125.515 8.543 124.561 8.201 123.427 8.201Z" fill="#1BC0D7"/>
</svg>
