<svg width="124" height="45" viewBox="0 0 124 45" fill="none" xmlns="http://www.w3.org/2000/svg">
<path d="M3.071 36V10.1H9.065V36H3.071ZM15.2116 36V10.1H20.1696L35.4506 28.748H33.0456V10.1H38.9656V36H34.0446L18.7266 17.352H21.1316V36H15.2116ZM50.4585 36V14.984H42.1705V10.1H64.7405V14.984H56.4525V36H50.4585ZM67.9655 36V10.1H79.1765C81.4952 10.1 83.4932 10.4823 85.1705 11.247C86.8479 11.987 88.1429 13.06 89.0555 14.466C89.9682 15.872 90.4245 17.5493 90.4245 19.498C90.4245 21.422 89.9682 23.087 89.0555 24.493C88.1429 25.8743 86.8479 26.935 85.1705 27.675C83.4932 28.415 81.4952 28.785 79.1765 28.785H71.2955L73.9595 26.158V36H67.9655ZM84.4305 36L77.9555 26.602H84.3565L90.9055 36H84.4305ZM73.9595 26.824L71.2955 24.012H78.8435C80.6935 24.012 82.0749 23.6173 82.9875 22.828C83.9002 22.014 84.3565 20.904 84.3565 19.498C84.3565 18.0673 83.9002 16.9573 82.9875 16.168C82.0749 15.3787 80.6935 14.984 78.8435 14.984H71.2955L73.9595 12.135V26.824ZM107.754 36.444C105.706 36.444 103.807 36.111 102.056 35.445C100.329 34.779 98.8242 33.8417 97.5415 32.633C96.2835 31.4243 95.2969 30.006 94.5815 28.378C93.8909 26.75 93.5455 24.974 93.5455 23.05C93.5455 21.126 93.8909 19.35 94.5815 17.722C95.2969 16.094 96.2959 14.6757 97.5785 13.467C98.8612 12.2583 100.366 11.321 102.093 10.655C103.819 9.989 105.694 9.656 107.717 9.656C109.764 9.656 111.639 9.989 113.341 10.655C115.067 11.321 116.56 12.2583 117.818 13.467C119.1 14.6757 120.099 16.094 120.815 17.722C121.53 19.3253 121.888 21.1013 121.888 23.05C121.888 24.974 121.53 26.7623 120.815 28.415C120.099 30.043 119.1 31.4613 117.818 32.67C116.56 33.854 115.067 34.779 113.341 35.445C111.639 36.111 109.776 36.444 107.754 36.444ZM107.717 31.338C108.876 31.338 109.937 31.1407 110.899 30.746C111.885 30.3513 112.749 29.784 113.489 29.044C114.229 28.304 114.796 27.4283 115.191 26.417C115.61 25.4057 115.82 24.2833 115.82 23.05C115.82 21.8167 115.61 20.6943 115.191 19.683C114.796 18.6717 114.229 17.796 113.489 17.056C112.773 16.316 111.922 15.7487 110.936 15.354C109.949 14.9593 108.876 14.762 107.717 14.762C106.557 14.762 105.484 14.9593 104.498 15.354C103.536 15.7487 102.685 16.316 101.945 17.056C101.205 17.796 100.625 18.6717 100.206 19.683C99.8109 20.6943 99.6135 21.8167 99.6135 23.05C99.6135 24.2587 99.8109 25.381 100.206 26.417C100.625 27.4283 101.192 28.304 101.908 29.044C102.648 29.784 103.511 30.3513 104.498 30.746C105.484 31.1407 106.557 31.338 107.717 31.338Z" fill="#1BC0D7"/>
</svg>
