<svg width="172" height="166" viewBox="0 0 172 166" fill="none" xmlns="http://www.w3.org/2000/svg">
<g filter="url(#filter0_d_2_2459)">
<path d="M86 147.842C124.66 147.842 156 117.982 156 81.1473C156 44.313 124.66 14.4529 86 14.4529C47.3401 14.4529 16 44.313 16 81.1473C16 117.982 47.3401 147.842 86 147.842Z" fill="#1BC0D7" fill-opacity="0.67"/>
<path opacity="0.5" fill-rule="evenodd" clip-rule="evenodd" d="M108.6 68.0513C113.48 68.0513 117.44 64.2888 117.44 59.6469C117.44 55.005 113.48 51.2424 108.6 51.2424C103.72 51.2424 99.77 55.005 99.77 59.6469C99.77 64.2888 103.72 68.0513 108.6 68.0513Z" fill="white"/>
<path opacity="0.7" fill-rule="evenodd" clip-rule="evenodd" d="M108.6 89.9415C113.48 89.9415 117.44 86.0037 117.44 81.1464C117.44 76.2882 113.48 72.3503 108.6 72.3503C103.72 72.3503 99.77 76.2882 99.77 81.1464C99.77 86.0037 103.72 89.9415 108.6 89.9415Z" fill="white"/>
<path fill-rule="evenodd" clip-rule="evenodd" d="M108.6 111.051C113.48 111.051 117.44 107.288 117.44 102.646C117.44 98.0049 113.48 94.2415 108.6 94.2415C103.72 94.2415 99.77 98.0049 99.77 102.646C99.77 107.288 103.72 111.051 108.6 111.051Z" fill="white"/>
<path opacity="0.6" fill-rule="evenodd" clip-rule="evenodd" d="M86 89.9415C91.11 89.9415 95.25 86.0037 95.25 81.1464C95.25 76.2882 91.11 72.3503 86 72.3503C80.9 72.3503 76.76 76.2882 76.76 81.1464C76.76 86.0037 80.9 89.9415 86 89.9415Z" fill="white"/>
<path opacity="0.9" fill-rule="evenodd" clip-rule="evenodd" d="M86 111.051C91.11 111.051 95.25 107.288 95.25 102.646C95.25 98.0049 91.11 94.2415 86 94.2415C80.9 94.2415 76.76 98.0049 76.76 102.646C76.76 107.288 80.9 111.051 86 111.051Z" fill="white"/>
<path opacity="0.8" fill-rule="evenodd" clip-rule="evenodd" d="M63.4 111.051C68.28 111.051 72.23 107.288 72.23 102.646C72.23 98.0049 68.28 94.2415 63.4 94.2415C58.52 94.2415 54.5601 98.0049 54.5601 102.646C54.5601 107.288 58.52 111.051 63.4 111.051Z" fill="white"/>
</g>
<defs>
<filter id="filter0_d_2_2459" x="0" y="0.452881" width="172" height="165.389" filterUnits="userSpaceOnUse" color-interpolation-filters="sRGB">
<feFlood flood-opacity="0" result="BackgroundImageFix"/>
<feColorMatrix in="SourceAlpha" type="matrix" values="0 0 0 0 0 0 0 0 0 0 0 0 0 0 0 0 0 0 127 0" result="hardAlpha"/>
<feOffset dy="2"/>
<feGaussianBlur stdDeviation="8"/>
<feComposite in2="hardAlpha" operator="out"/>
<feColorMatrix type="matrix" values="0 0 0 0 0.0509804 0 0 0 0 0.0392157 0 0 0 0 0.172549 0 0 0 0.12 0"/>
<feBlend mode="normal" in2="BackgroundImageFix" result="effect1_dropShadow_2_2459"/>
<feBlend mode="normal" in="SourceGraphic" in2="effect1_dropShadow_2_2459" result="shape"/>
</filter>
</defs>
</svg>
